<?xml version="1.0" encoding="UTF-8" standalone="no"?><!DOCTYPE svg PUBLIC "-//W3C//DTD SVG 1.1//EN" "http://www.w3.org/Graphics/SVG/1.1/DTD/svg11.dtd"><svg width="100%" height="100%" viewBox="0 0 32 34" version="1.1" xmlns="http://www.w3.org/2000/svg" xmlns:xlink="http://www.w3.org/1999/xlink" xml:space="preserve" xmlns:serif="http://www.serif.com/" style="fill-rule:evenodd;clip-rule:evenodd;stroke-linejoin:round;stroke-miterlimit:2;"><path d="M4.4,4.823l21.755,-0c0.476,0.915 1.444,1.549 2.553,1.549c1.584,-0 2.869,-1.285 2.869,-2.869c-0,-1.584 -1.285,-2.869 -2.887,-2.869c-1.197,-0 -2.235,0.739 -2.658,1.795l-21.632,-0c-2.094,-0 -3.749,1.602 -3.749,3.626l0,23.163c0,2.06 1.725,3.82 3.749,3.82l23.146,-0c2.042,-0 3.696,-1.708 3.696,-3.82l0,-13.729c0,-2.059 -1.654,-3.749 -3.696,-3.749l-13.729,-0c-2.094,-0 -3.872,1.725 -3.872,3.749l-0,4.312c-0,2.007 1.742,3.626 3.872,3.626l4.787,0c0.423,1.056 1.461,1.796 2.658,1.796c1.585,-0 2.87,-1.285 2.87,-2.869c-0,-1.585 -1.285,-2.869 -2.87,-2.869c-1.108,-0 -2.077,0.633 -2.552,1.549l-4.893,-0c-0.704,-0 -1.461,-0.475 -1.461,-1.233l0,-4.329c0,-0.704 0.704,-1.356 1.461,-1.356l13.729,0c0.722,0 1.302,0.599 1.302,1.356l0,13.729c0,0.756 -0.598,1.408 -1.302,1.408l-23.146,-0c-0.721,-0 -1.355,-0.669 -1.355,-1.408l0,-23.146c0,-0.686 0.581,-1.232 1.355,-1.232Zm24.29,-2.693c0.757,-0 1.373,0.616 1.373,1.373c0,0.757 -0.616,1.373 -1.373,1.373c-0.757,-0 -1.373,-0.616 -1.373,-1.373c0,-0.757 0.616,-1.373 1.373,-1.373Zm-7.41,18.851c0.757,-0 1.373,0.616 1.373,1.373c-0,0.756 -0.616,1.373 -1.373,1.373c-0.757,-0 -1.373,-0.617 -1.373,-1.373c0,-0.775 0.616,-1.373 1.373,-1.373Z" style="fill:#d7a874;"/></svg>